<?xml version="1.0" standalone="no"?>
<!DOCTYPE svg PUBLIC "-//W3C//DTD SVG 20010904//EN"
 "http://www.w3.org/TR/2001/REC-SVG-20010904/DTD/svg10.dtd">
<svg version="1.0" xmlns="http://www.w3.org/2000/svg"
 width="256.000000pt" height="48.000000pt" viewBox="0 0 256.000000 48.000000"
 preserveAspectRatio="xMidYMid meet">

<g transform="translate(0.000000,48.000000) scale(0.100000,-0.100000)"
fill="#000000" stroke="none">
<path d="M160 467 c-49 -16 -133 -102 -148 -153 -28 -94 -8 -169 63 -239 101
-102 229 -102 330 0 102 101 102 229 0 330 -70 71 -152 91 -245 62z m152 -104
l128 -78 0 -47 c0 -86 4 -86 -186 29 -150 91 -172 108 -162 121 15 18 69 52
82 52 5 0 67 -35 138 -77z m68 -278 c-12 -13 -35 -29 -51 -36 -28 -11 -37 -7
-159 67 l-130 79 0 46 c0 86 -4 87 186 -28 l175 -105 -21 -23z"/>
<path d="M584 346 c-70 -31 -68 -153 3 -183 76 -31 153 12 153 87 0 54 -14 79
-55 96 -42 17 -61 17 -101 0z m80 -52 c9 -22 7 -67 -3 -82 -26 -42 -75 25 -53
73 13 28 47 34 56 9z"/>
<path d="M1490 255 l0 -105 35 0 c34 0 35 1 35 40 0 38 2 40 30 40 28 0 30 -2
30 -40 0 -39 1 -40 35 -40 l35 0 0 105 0 105 -34 0 c-34 0 -35 -1 -38 -42 -3
-39 -6 -43 -30 -46 -27 -3 -28 -2 -28 42 0 46 0 46 -35 46 l-35 0 0 -105z"/>
<path d="M770 195 l0 -115 30 0 c29 0 30 1 30 52 0 49 1 50 18 35 41 -38 92
-3 92 63 0 27 -7 47 -20 60 -24 24 -38 25 -68 4 -20 -14 -22 -14 -22 0 0 11
-10 16 -30 16 l-30 0 0 -115z m100 35 c0 -20 -5 -30 -15 -30 -18 0 -30 24 -21
45 10 28 36 17 36 -15z"/>
<path d="M1003 300 c-44 -18 -57 -81 -24 -121 24 -30 100 -34 128 -7 22 23 11
33 -37 31 -22 -1 -42 2 -45 8 -4 5 17 9 49 9 48 0 56 3 56 19 0 48 -74 84
-127 61z m57 -50 c0 -5 -7 -10 -15 -10 -8 0 -15 5 -15 10 0 6 7 10 15 10 8 0
15 -4 15 -10z"/>
<path d="M1160 230 l0 -80 30 0 c27 0 30 3 30 34 0 50 9 66 36 66 20 0 24 5
24 30 0 36 -22 40 -44 8 l-16 -22 0 22 c0 18 -6 22 -30 22 l-30 0 0 -80z"/>
<path d="M1330 299 c-24 -10 -40 -26 -40 -43 0 -5 21 -6 46 -2 53 7 59 -14 7
-25 -41 -8 -53 -17 -53 -40 0 -28 43 -46 76 -31 17 8 31 9 44 2 10 -5 25 -10
33 -10 18 0 33 33 18 38 -6 2 -11 20 -11 41 0 20 -6 45 -13 54 -15 21 -74 30
-107 16z m50 -94 c0 -8 -7 -15 -15 -15 -16 0 -20 12 -8 23 11 12 23 8 23 -8z"/>
<path d="M1763 300 c-44 -18 -57 -81 -24 -121 25 -31 98 -34 130 -5 27 25 29
86 2 110 -23 21 -78 29 -108 16z m57 -70 c0 -20 -5 -30 -15 -30 -10 0 -15 10
-15 30 0 20 5 30 15 30 10 0 15 -10 15 -30z"/>
<path d="M1920 240 c0 -65 2 -71 25 -82 19 -9 29 -8 50 6 22 14 25 14 25 1 0
-10 10 -15 30 -15 l30 0 0 80 0 80 -30 0 c-29 0 -30 -2 -30 -42 0 -24 -4 -49
-9 -57 -16 -25 -31 -1 -31 50 0 48 -1 49 -30 49 l-30 0 0 -70z"/>
<path d="M2142 300 c-51 -21 -39 -66 24 -87 l39 -13 -42 4 c-28 3 -43 0 -47
-9 -12 -31 56 -53 109 -35 32 11 36 15 33 43 -3 26 -9 32 -41 41 -22 6 -36 14
-32 18 4 3 19 2 35 -2 22 -6 30 -5 34 7 8 21 9 20 -25 32 -37 13 -56 13 -87 1z"/>
<path d="M2323 300 c-44 -18 -57 -81 -24 -121 24 -30 100 -34 128 -7 22 23 11
33 -37 31 -22 -1 -42 2 -45 8 -4 5 17 9 49 9 48 0 56 3 56 19 0 48 -74 84
-127 61z m57 -50 c0 -5 -7 -10 -15 -10 -8 0 -15 5 -15 10 0 6 7 10 15 10 8 0
15 -4 15 -10z"/>
</g>
</svg>
